Daimajin.Majin.Strikes.Again.1966.XviD-NvadR.avi 
http://www.imdb.com/title/2tt006285/

A peaceful mountain village is threatened when its 
woodsmen are kidnapped by an evil warlord as labor 
to build a military fortress. With the roads guarded, 
the only way to reach the captives is over a treacherous 
path through the forbidden Majin Mountain, where an 
ominous stone idol stands.

Whenever anyone goes to the mountain, terrible storms, 
floods, and earthquakes ensue; but four little boys 
disobey their parents and make the journey to save 
their fathers, braving the elements, the warlord\'s 
henchmen, and the giant Majin.

--------------- SCREENSHOTS ---------------- 
http://www.postimg.com/40000/photo-39145.jpg
 
http://www.postimg.com/40000/photo-39146.jpg
 
http://www.postimg.com/40000/photo-39147.jpg
 
http://www.postimg.com/40000/photo-39148.jpg
 
http://www.postimg.com/40000/photo-39149.jpg
--------------------------------------------

   General
   
      Complete name : Daimajin.Majin.Strikes.Again.1966.XviD-NvadR.avi
      Format : AVI
      Format/Info : Audio Video Interleave
      File size : 1.04 GiB
      Duration : 1h 27mn
      Overall bit rate : 1 709 Kbps
      Writing application : VirtualDubMod 1.5.10.2 (build 2542/release)
      Writing library : VirtualDub-MPEG2 build 24586/release
      
      
      Format : MPEG-4 Visual
      Format profile : AdvancedSimple@L5
      Format settings, BVOP : Yes
      Format settings, QPel : No
      Format settings, GMC : No warppoints
      Format settings, Matrix : Default (H.263)
      Muxing mode : Packed bitstream
      Codec ID : XVID
      Codec ID/Hint : XviD
      Duration : 1h 27mn
      Bit rate : 1 588 Kbps
      Width : 656 pixels
      Height : 272 pixels
      Display aspect ratio : 2.35:1
      Frame rate : 23.976 fps
      Resolution : 24 bits
      Colorimetry : 4:2:0
      Scan type : Progressive
      Bits/(Pixel*Frame) : 0.371
      Stream size : 994 MiB (93%)
      Writing library : XviD 63
      
   Audio 
   
      Format : AC-3
      Format/Info : Audio Coding 3
      Codec ID : 2000
      Duration : 1h 27mn
      Bit rate mode : Constant
      Bit rate : 112 Kbps
      Channel(s) : 2 channels
      Channel positions : L R
      Sampling rate : 48.0 KHz
      Stream size : 70.1 MiB (7%)
      Alignment : Aligned on interleaves
      Interleave, duration : 42 ms (1.00 video frame)
      Interleave, preload duration : 512 ms
      
   Encoders Note
   
      Enjoy Majin in the correct aspect ratio & intelligent
      subtitles. ADV versions are crap and out of ratio, these
      are absolutely correct in every way.   
      
      
   Source
   
      Region 2 (Japan) DVD9 (NTSC) 720 x 480 29.970 fps 2.35:1
      Color AC3 Digital Dolby 2CH Stereo 192 Kb/s 48.0 KHz  

      
-------------- TORRENT STATS -------------- 
http://torrent-stats.info/ad25/f2e28031.png